<svg width="96" height="96" viewBox="0 0 96 96" fill="none" xmlns="http://www.w3.org/2000/svg">
<path fill-rule="evenodd" clip-rule="evenodd" d="M37.716 35.876H52.572V43.276C54.712 39.02 60.2 35.196 68.444 35.196C84.248 35.196 88 43.668 88 59.212V88H72V62.752C72 53.9 69.86 48.908 64.412 48.908C56.856 48.908 53.716 54.288 53.716 62.748V88H37.716V35.876V35.876ZM10.28 87.32H26.28V35.196H10.28V87.32V87.32ZM28.572 18.2C28.5726 19.5411 28.3066 20.8689 27.7895 22.1063C27.2725 23.3438 26.5146 24.4661 25.56 25.408C23.6256 27.3305 21.0072 28.4066 18.28 28.4C15.5576 28.3982 12.9452 27.3248 11.008 25.412C10.0568 24.4669 9.30154 23.3433 8.78537 22.1057C8.26921 20.8682 8.00232 19.5409 8 18.2C8 15.492 9.08 12.9 11.012 10.988C12.9475 9.07263 15.561 7.9988 18.284 8C21.012 8 23.628 9.076 25.56 10.988C27.488 12.9 28.572 15.492 28.572 18.2Z" fill="black"/>
</svg>
