<svg width="96" height="96" viewBox="0 0 96 96" fill="none" xmlns="http://www.w3.org/2000/svg">
<g clip-path="url(#clip0_201_4)">
<path d="M79.593 76.797L62.409 48L79.593 19.203L88.002 48L79.593 76.797ZM41.592 74.001L20.001 52.797H54.408L71.592 81.594L41.592 74.001ZM41.592 21.591L71.592 13.998L54.408 42.795H19.593C19.593 43.203 41.592 21.591 41.592 21.591V21.591ZM85.593 0L46.41 9.999L40.41 19.998H28.797L0 47.997L28.797 75.996H40.41L46.002 85.995L85.206 95.994L95.595 57.993L90.003 47.994L96.003 37.995L85.593 0Z" fill="black"/>
</g>
<defs>
<clipPath id="clip0_201_4">
<rect width="96" height="96" fill="white"/>
</clipPath>
</defs>
</svg>
