<svg width="86" height="96" viewBox="0 0 86 96" fill="none" xmlns="http://www.w3.org/2000/svg">
<g clip-path="url(#clip0_201_6)">
<path fill-rule="evenodd" clip-rule="evenodd" d="M84.1516 23.8974C84.848 25.118 85.1923 26.5407 85.193 28.1507C85.1973 41.3027 85.1973 67.599 85.1973 67.599C85.1973 69.174 84.8663 70.569 84.2016 71.7717C83.5173 73.0077 82.4786 74.0424 81.073 74.8557C76.3144 77.5991 71.554 80.339 66.7938 83.0789C60.2067 86.8702 53.6198 90.6614 47.038 94.4617C43.9803 96.2267 41.0166 96.1627 37.9813 94.3717C35.2553 92.7633 25.9296 87.4029 17.4869 82.5501C11.9513 79.3682 6.79526 76.4045 4.12796 74.8597C2.7223 74.046 1.68363 73.012 0.999296 71.775C0.333629 70.5727 0.0032959 69.1774 0.0032959 67.6027C0.00546257 61.0269 0.00546257 54.451 0.00546257 47.8752C0.00546257 41.2994 0.00546257 34.7235 0.00762923 28.1477C0.0082959 24.954 1.35796 22.4967 4.13163 20.8907C6.81219 19.3381 12.0062 16.3522 17.5728 13.152C25.9926 8.3117 35.265 2.9812 37.9826 1.37869C41.0166 -0.411308 43.9803 -0.475975 47.037 1.28869C53.5159 5.0295 59.9996 8.76161 66.4834 12.4937C71.346 15.2927 76.2087 18.0917 81.0693 20.8944C82.4433 21.69 83.4676 22.6964 84.1516 23.8974ZM42.8223 16.2086C54.5369 16.2086 64.7646 22.5706 70.2429 32.0273L70.1896 31.9363L56.4063 39.8723C53.6909 35.2746 48.7129 32.1716 43.0019 32.1076L42.8219 32.1066C34.1136 32.1066 27.0536 39.1666 27.0536 47.875C27.0507 50.6198 27.7678 53.3173 29.1333 55.6983C31.8513 60.4433 36.9609 63.6436 42.8223 63.6436C48.6726 63.6436 53.7761 60.4544 56.4971 55.7221L70.2593 63.6946C64.8409 73.0713 54.7533 79.4137 43.1749 79.54L42.8223 79.542C31.0706 79.542 20.8139 73.1406 15.3493 63.634C12.6816 58.993 11.1553 53.6126 11.1553 47.875C11.1553 30.3863 25.3326 16.2083 42.8219 16.2083L42.8223 16.2086ZM56.4971 55.7221L56.4969 55.722L56.5626 55.607C56.5409 55.6454 56.5191 55.6838 56.4971 55.7221ZM67.3006 38.7646V43.256H71.792V38.7646H74.0376V43.256H78.529V45.5016H74.0376V49.9926H78.529V52.2383H74.0376V56.7296H71.792V52.2383H67.3006V56.7296H65.055V52.2383H60.564V49.9926H65.055V45.5016H60.564V43.256H65.055V38.7646H67.3006ZM71.792 45.5013H67.3006V49.9926H71.792V45.5016V45.5013Z" fill="black"/>
</g>
<defs>
<clipPath id="clip0_201_6">
<rect width="85.34" height="96" fill="white"/>
</clipPath>
</defs>
</svg>
